<svg width="194" height="49" viewBox="0 0 194 49" fill="none" xmlns="http://www.w3.org/2000/svg">
<path d="M0.84 46.208V17.728C0.84 16.576 1.65067 16 3.272 16C3.912 16 4.44533 16.1493 4.872 16.448C5.34133 16.7467 5.576 17.1733 5.576 17.728V46.208C5.576 46.7627 5.34133 47.2107 4.872 47.552C4.40267 47.8507 3.848 48 3.208 48C1.62933 48 0.84 47.4027 0.84 46.208ZM0.84 7.808V6.656C0.84 5.504 1.65067 4.928 3.272 4.928C3.912 4.928 4.44533 5.07733 4.872 5.376C5.34133 5.67466 5.576 6.10133 5.576 6.656V7.808C5.576 8.36267 5.34133 8.81067 4.872 9.152C4.40267 9.45066 3.848 9.6 3.208 9.6C1.62933 9.6 0.84 9.00267 0.84 7.808ZM10.1415 5.504C10.1415 4.864 10.2908 4.33067 10.5895 3.904C10.8882 3.43466 11.3148 3.2 11.8695 3.2H43.4855C44.0402 3.2 44.4668 3.43466 44.7655 3.904C45.1068 4.37333 45.2775 4.928 45.2775 5.568C45.2775 7.14666 44.6802 7.936 43.4855 7.936H29.6615V46.208C29.6615 46.7627 29.4268 47.2107 28.9575 47.552C28.4882 47.8507 27.9335 48 27.2935 48C25.7148 48 24.9255 47.4027 24.9255 46.208V7.936H11.8695C10.7175 7.936 10.1415 7.12533 10.1415 5.504ZM43.06 36.352C43.06 30.6347 45.3 25.7067 49.78 21.568C54.26 17.4293 59.3373 15.36 65.012 15.36C68.8947 15.36 72.2013 16.832 74.932 19.776C77.6627 22.72 79.028 26.0693 79.028 29.824L78.964 46.592C78.964 47.1467 78.6867 47.5947 78.132 47.936C77.62 48.2347 77.044 48.384 76.404 48.384C74.996 48.384 74.292 47.7867 74.292 46.592V35.776C70.836 40.256 67.5293 43.4987 64.372 45.504C61.2573 47.5093 58.036 48.512 54.708 48.512C51.636 48.512 48.9267 47.2747 46.58 44.8C44.2333 42.2827 43.06 39.4667 43.06 36.352ZM47.668 36.48C47.668 38.912 48.5213 40.768 50.228 42.048C51.9347 43.2853 53.748 43.904 55.668 43.904C57.8867 43.904 60.4253 42.816 63.284 40.64C66.1427 38.4213 68.5107 35.968 70.388 33.28C72.308 30.5493 73.268 28.416 73.268 26.88C73.268 25.6 72.884 24.4693 72.116 23.488C71.3907 22.464 70.4733 21.7173 69.364 21.248C68.2973 20.7787 67.316 20.4373 66.42 20.224C65.524 19.968 64.7773 19.84 64.18 19.84C59.9987 19.84 56.2013 21.5253 52.788 24.896C49.3747 28.224 47.668 32.0853 47.668 36.48ZM84.938 41.92C84.938 41.3653 85.1727 40.768 85.642 40.128C86.154 39.488 86.73 39.0827 87.37 38.912C87.6687 38.912 87.818 38.9547 87.818 39.04C89.1833 40.5333 91.146 41.7067 93.706 42.56C96.266 43.3707 98.2713 43.84 99.722 43.968C101.215 44.096 102.602 44.16 103.882 44.16C109.429 44.16 112.202 42.4747 112.202 39.104C112.202 37.952 111.775 37.0347 110.922 36.352C110.111 35.6267 108.981 35.136 107.53 34.88C106.122 34.624 104.693 34.4533 103.242 34.368C101.791 34.2827 100.213 34.2187 98.506 34.176C96.7993 34.0907 95.498 33.9627 94.602 33.792C92.17 33.3227 90.0153 32.3413 88.138 30.848C86.2607 29.312 85.322 27.52 85.322 25.472C85.322 22.2293 86.9433 19.7547 90.186 18.048C93.4713 16.2987 97.0767 15.424 101.002 15.424C103.647 15.424 106.485 15.8933 109.514 16.832C112.543 17.728 114.805 19.136 116.298 21.056C116.341 21.1413 116.362 21.248 116.362 21.376C116.362 21.9307 116.106 22.592 115.594 23.36C115.082 24.0853 114.591 24.448 114.122 24.448C113.695 24.448 113.269 24.1067 112.842 23.424C110.794 21.248 106.719 20.16 100.618 20.16C98.1007 20.16 95.7113 20.5867 93.45 21.44C91.1887 22.2933 90.058 23.552 90.058 25.216C90.058 26.624 91.0393 27.6907 93.002 28.416C94.9647 29.0987 97.0553 29.44 99.274 29.44C100.853 29.44 102.175 29.4613 103.242 29.504C104.309 29.5467 105.61 29.6747 107.146 29.888C108.682 30.0587 109.962 30.3787 110.986 30.848C112.01 31.2747 113.013 31.8507 113.994 32.576C114.975 33.2587 115.701 34.1973 116.17 35.392C116.682 36.544 116.938 37.9093 116.938 39.488C116.938 41.664 116.255 43.4987 114.89 44.992C113.567 46.4427 112.031 47.4453 110.282 48C108.575 48.5973 106.762 48.896 104.842 48.896C95.8393 48.896 89.354 46.976 85.386 43.136C85.0873 42.8373 84.938 42.432 84.938 41.92ZM123.408 46.208V1.728C123.408 0.575996 124.219 -3.8147e-06 125.84 -3.8147e-06C126.48 -3.8147e-06 127.014 0.14933 127.44 0.447998C127.91 0.746663 128.144 1.17333 128.144 1.728V29.056L150.096 16.448C150.566 16.1493 151.014 16 151.44 16C152.08 16 152.592 16.32 152.976 16.96C153.403 17.5573 153.616 18.1973 153.616 18.88C153.616 19.52 153.446 19.9467 153.104 20.16L138.704 28.416L158.48 44.736C158.651 45.0347 158.736 45.3333 158.736 45.632C158.736 46.3573 158.31 46.976 157.456 47.488C156.902 47.8293 156.347 48 155.792 48C155.195 48 154.726 47.744 154.384 47.232L134.288 30.976L128.144 34.496V46.208C128.144 46.7627 127.91 47.2107 127.44 47.552C126.971 47.8507 126.416 48 125.776 48C124.198 48 123.408 47.4027 123.408 46.208ZM161.129 41.92C161.129 41.3653 161.363 40.768 161.833 40.128C162.345 39.488 162.921 39.0827 163.561 38.912C163.859 38.912 164.009 38.9547 164.009 39.04C165.374 40.5333 167.337 41.7067 169.897 42.56C172.457 43.3707 174.462 43.84 175.913 43.968C177.406 44.096 178.793 44.16 180.073 44.16C185.619 44.16 188.393 42.4747 188.393 39.104C188.393 37.952 187.966 37.0347 187.113 36.352C186.302 35.6267 185.171 35.136 183.721 34.88C182.313 34.624 180.883 34.4533 179.433 34.368C177.982 34.2827 176.403 34.2187 174.697 34.176C172.99 34.0907 171.689 33.9627 170.793 33.792C168.361 33.3227 166.206 32.3413 164.329 30.848C162.451 29.312 161.513 27.52 161.513 25.472C161.513 22.2293 163.134 19.7547 166.377 18.048C169.662 16.2987 173.267 15.424 177.193 15.424C179.838 15.424 182.675 15.8933 185.705 16.832C188.734 17.728 190.995 19.136 192.489 21.056C192.531 21.1413 192.553 21.248 192.553 21.376C192.553 21.9307 192.297 22.592 191.785 23.36C191.273 24.0853 190.782 24.448 190.313 24.448C189.886 24.448 189.459 24.1067 189.033 23.424C186.985 21.248 182.91 20.16 176.809 20.16C174.291 20.16 171.902 20.5867 169.641 21.44C167.379 22.2933 166.249 23.552 166.249 25.216C166.249 26.624 167.23 27.6907 169.193 28.416C171.155 29.0987 173.246 29.44 175.465 29.44C177.043 29.44 178.366 29.4613 179.433 29.504C180.499 29.5467 181.801 29.6747 183.337 29.888C184.873 30.0587 186.153 30.3787 187.177 30.848C188.201 31.2747 189.203 31.8507 190.185 32.576C191.166 33.2587 191.891 34.1973 192.361 35.392C192.873 36.544 193.129 37.9093 193.129 39.488C193.129 41.664 192.446 43.4987 191.081 44.992C189.758 46.4427 188.222 47.4453 186.473 48C184.766 48.5973 182.953 48.896 181.033 48.896C172.03 48.896 165.545 46.976 161.577 43.136C161.278 42.8373 161.129 42.432 161.129 41.92Z" fill="white"/>
</svg>
